<svg width="17" height="17" viewBox="0 0 17 17" fill="none" xmlns="http://www.w3.org/2000/svg">
<g clip-path="url(#clip0_316_4567)">
<g clip-path="url(#clip1_316_4567)">
<path fill-rule="evenodd" clip-rule="evenodd" d="M5.10001 0C5.56921 0 5.95001 0.3808 5.95001 0.85V1.7H11.05V0.85C11.05 0.3808 11.4308 0 11.9 0C12.3692 0 12.75 0.3808 12.75 0.85V1.7H13.6C15.0085 1.7 16.15 2.84155 16.15 4.25V14.45C16.15 15.8584 15.0085 17 13.6 17H3.40001C1.99156 17 0.850006 15.8584 0.850006 14.45V4.25C0.850006 2.84155 1.99156 1.7 3.40001 1.7H4.25001V0.85C4.25001 0.3808 4.63081 0 5.10001 0ZM4.25001 3.4H3.40001C2.93081 3.4 2.55001 3.7808 2.55001 4.25V6.8H14.45V4.25C14.45 3.7808 14.0692 3.4 13.6 3.4H12.75V4.25C12.75 4.7192 12.3692 5.1 11.9 5.1C11.4308 5.1 11.05 4.7192 11.05 4.25V3.4H5.95001V4.25C5.95001 4.7192 5.56921 5.1 5.10001 5.1C4.63081 5.1 4.25001 4.7192 4.25001 4.25V3.4ZM14.45 8.5H2.55001V14.45C2.55001 14.9192 2.93081 15.3 3.40001 15.3H13.6C14.0692 15.3 14.45 14.9192 14.45 14.45V8.5ZM4.25001 11.05C4.25001 10.5808 4.63081 10.2 5.10001 10.2H6.80001C7.26921 10.2 7.65001 10.5808 7.65001 11.05V12.75C7.65001 13.2192 7.26921 13.6 6.80001 13.6H5.10001C4.63081 13.6 4.25001 13.2192 4.25001 12.75V11.05Z" fill="#D11A2A"/>
</g>
</g>
<defs>
<clipPath id="clip0_316_4567">
<rect width="17" height="17" fill="white"/>
</clipPath>
<clipPath id="clip1_316_4567">
<rect width="15.3" height="17" fill="white" transform="translate(0.850006)"/>
</clipPath>
</defs>
</svg>
