<svg width="17" height="17" viewBox="0 0 17 17" fill="none" xmlns="http://www.w3.org/2000/svg">
<g clip-path="url(#clip0_316_4577)">
<g clip-path="url(#clip1_316_4577)">
<path fill-rule="evenodd" clip-rule="evenodd" d="M8.5 1.7C4.7447 1.7 1.7 4.7447 1.7 8.5C1.7 12.2553 4.7447 15.3 8.5 15.3C12.2553 15.3 15.3 12.2553 15.3 8.5C15.3 4.7447 12.2553 1.7 8.5 1.7ZM0 8.5C0 3.80545 3.80545 0 8.5 0C13.1946 0 17 3.80545 17 8.5C17 13.1946 13.1946 17 8.5 17C3.80545 17 0 13.1946 0 8.5ZM8.5 3.4C8.9692 3.4 9.35 3.7808 9.35 4.25V8.1481L11.651 10.4491C11.9833 10.7806 11.9833 11.3195 11.651 11.651C11.3195 11.9833 10.7806 11.9833 10.4491 11.651L7.89905 9.10095C7.73925 8.942 7.65 8.72525 7.65 8.5V4.25C7.65 3.7808 8.0308 3.4 8.5 3.4Z" fill="#D11A2A"/>
</g>
</g>
<defs>
<clipPath id="clip0_316_4577">
<rect width="17" height="17" fill="white"/>
</clipPath>
<clipPath id="clip1_316_4577">
<rect width="17" height="17" fill="white"/>
</clipPath>
</defs>
</svg>
