<svg width="17" height="17" viewBox="0 0 17 17" fill="none" xmlns="http://www.w3.org/2000/svg">
<g clip-path="url(#clip0_316_4593)">
<g clip-path="url(#clip1_316_4593)">
<path fill-rule="evenodd" clip-rule="evenodd" d="M5.95 1.7C4.54155 1.7 3.4 2.84155 3.4 4.25C3.4 5.65845 4.54155 6.8 5.95 6.8C7.35845 6.8 8.5 5.65845 8.5 4.25C8.5 2.84155 7.35845 1.7 5.95 1.7ZM1.7 4.25C1.7 1.90315 3.60315 0 5.95 0C8.29685 0 10.2 1.90315 10.2 4.25C10.2 6.59685 8.29685 8.5 5.95 8.5C3.60315 8.5 1.7 6.59685 1.7 4.25ZM11.0764 0.7497C11.1928 0.29495 11.6561 0.0204 12.1108 0.13685C13.0254 0.37145 13.8355 0.9027 14.4143 1.64815C14.9923 2.3936 15.3068 3.31075 15.3068 4.25425C15.3068 5.19775 14.9923 6.1149 14.4143 6.86035C13.8355 7.6058 13.0254 8.13705 12.1108 8.37165C11.6561 8.4881 11.1928 8.21355 11.0764 7.7588C10.9599 7.30405 11.2345 6.8408 11.6892 6.72435C12.2375 6.5841 12.7237 6.26535 13.0713 5.81825C13.4181 5.3703 13.6068 4.82035 13.6068 4.25425C13.6068 3.68815 13.4181 3.1382 13.0713 2.69025C12.7237 2.24315 12.2375 1.9244 11.6892 1.78415C11.2345 1.6677 10.9599 1.20445 11.0764 0.7497ZM4.25 11.9C3.5734 11.9 2.92485 12.1686 2.44715 12.6472C1.9686 13.1249 1.7 13.7734 1.7 14.45V16.15C1.7 16.6192 1.3192 17 0.85 17C0.3808 17 0 16.6192 0 16.15V14.45C0 13.3229 0.44795 12.2417 1.2444 11.4444C2.0417 10.648 3.1229 10.2 4.25 10.2H7.65C8.7771 10.2 9.8583 10.648 10.6556 11.4444C11.4521 12.2417 11.9 13.3229 11.9 14.45V16.15C11.9 16.6192 11.5192 17 11.05 17C10.5808 17 10.2 16.6192 10.2 16.15V14.45C10.2 13.7734 9.9314 13.1249 9.45285 12.6472C8.97515 12.1686 8.3266 11.9 7.65 11.9H4.25ZM12.7772 10.965C12.8945 10.5103 13.3577 10.2374 13.8125 10.3547C14.7212 10.5893 15.5261 11.1172 16.1024 11.8575C16.6787 12.597 16.9949 13.5073 17 14.4449V16.15C17 16.6192 16.6192 17 16.15 17C15.6808 17 15.3 16.6192 15.3 16.15V14.4526C15.2966 13.8907 15.107 13.3458 14.7611 12.9022C14.4151 12.4585 13.9324 12.1414 13.3875 12.0003C12.9328 11.883 12.6599 11.4198 12.7772 10.965Z" fill="#D11A2A"/>
</g>
</g>
<defs>
<clipPath id="clip0_316_4593">
<rect width="17" height="17" fill="white"/>
</clipPath>
<clipPath id="clip1_316_4593">
<rect width="17" height="17" fill="white"/>
</clipPath>
</defs>
</svg>
