<svg width="17" height="17" viewBox="0 0 17 17" fill="none" xmlns="http://www.w3.org/2000/svg">
<g clip-path="url(#clip0_316_4585)">
<g clip-path="url(#clip1_316_4585)">
<path fill-rule="evenodd" clip-rule="evenodd" d="M8.49985 1.65975C7.35131 1.65975 6.22766 2.00083 5.27247 2.639C4.31728 3.27718 3.57288 4.18423 3.13305 5.24564C2.69322 6.30705 2.57786 7.47552 2.80193 8.60166C3.02683 9.72863 3.57952 10.7643 4.39197 11.5768L7.91396 15.0971C8.06915 15.2531 8.27994 15.3402 8.50068 15.3402C8.7206 15.3402 8.93139 15.2531 9.08658 15.0971L12.6077 11.5768C13.4202 10.7643 13.9729 9.72863 14.1978 8.60166C14.4218 7.47552 14.3065 6.30705 13.8667 5.24564C13.4268 4.18423 12.6824 3.27718 11.7272 2.639C10.7721 2.00083 9.6484 1.65975 8.49985 1.65975ZM4.35048 1.25892C5.57869 0.438174 7.02268 0 8.49985 0C9.97703 0 11.421 0.438174 12.6492 1.25892C13.8774 2.07967 14.8351 3.24564 15.4003 4.61079C15.9654 5.9751 16.1131 7.47718 15.8252 8.92614C15.5372 10.3743 14.826 11.7054 13.7812 12.7502L10.26 16.2714C9.79363 16.7378 9.16044 17 8.50068 17C7.8401 17 7.20774 16.7378 6.74052 16.2714L3.21853 12.7502C2.17371 11.7054 1.46251 10.3743 1.17454 8.92614C0.886576 7.47718 1.03429 5.9751 1.59944 4.61079C2.16458 3.24564 3.12226 2.07967 4.35048 1.25892ZM8.49985 5.80913C7.58284 5.80913 6.8401 6.55187 6.8401 7.46888C6.8401 8.38506 7.58284 9.12863 8.49985 9.12863C9.41687 9.12863 10.1596 8.38506 10.1596 7.46888C10.1596 6.55187 9.41687 5.80913 8.49985 5.80913ZM5.18035 7.46888C5.18035 5.63568 6.66666 4.14938 8.49985 4.14938C10.333 4.14938 11.8194 5.63568 11.8194 7.46888C11.8194 9.30207 10.333 10.7884 8.49985 10.7884C6.66666 10.7884 5.18035 9.30207 5.18035 7.46888Z" fill="#D11A2A"/>
</g>
</g>
<defs>
<clipPath id="clip0_316_4585">
<rect width="17" height="17" fill="white"/>
</clipPath>
<clipPath id="clip1_316_4585">
<rect width="14.9378" height="17" fill="white" transform="translate(1.03113)"/>
</clipPath>
</defs>
</svg>
