<svg width="390" height="842" viewBox="0 0 390 842" fill="none" xmlns="http://www.w3.org/2000/svg">
<rect x="-41.1548" y="-257" width="152.39" height="1254.25" rx="40" transform="rotate(11.4891 -41.1548 -257)" fill="url(#paint0_linear_350_2082)"/>
<rect x="108.182" y="-226.647" width="152.39" height="1254.25" rx="15.1509" transform="rotate(11.4891 108.182 -226.647)" fill="url(#paint1_linear_350_2082)"/>
<rect x="257.518" y="-196.293" width="208.938" height="1254.25" rx="15.1509" transform="rotate(11.4891 257.518 -196.293)" fill="url(#paint2_linear_350_2082)"/>
<rect x="462.27" y="-154.677" width="100.171" height="1254.25" rx="15.1509" transform="rotate(11.4891 462.27 -154.677)" fill="url(#paint3_linear_350_2082)"/>
<rect x="560.433" y="-134.725" width="124.029" height="1254.25" rx="15.1509" transform="rotate(11.4891 560.433 -134.725)" fill="url(#paint4_linear_350_2082)"/>
<defs>
<linearGradient id="paint0_linear_350_2082" x1="35.0402" y1="-257" x2="35.0402" y2="997.246" gradientUnits="userSpaceOnUse">
<stop stop-color="#E0D9F1" stop-opacity="0"/>
<stop offset="0.115385" stop-color="#E0D9F1"/>
<stop offset="1" stop-color="#E0D9F1" stop-opacity="0"/>
</linearGradient>
<linearGradient id="paint1_linear_350_2082" x1="184.377" y1="-226.647" x2="184.377" y2="1027.6" gradientUnits="userSpaceOnUse">
<stop offset="0.06" stop-color="#F6EDCB" stop-opacity="0"/>
<stop offset="0.173077" stop-color="#F6EDCB"/>
<stop offset="0.96" stop-color="#F6EDCB" stop-opacity="0"/>
</linearGradient>
<linearGradient id="paint2_linear_350_2082" x1="361.987" y1="-196.293" x2="361.987" y2="1057.95" gradientUnits="userSpaceOnUse">
<stop offset="0.06" stop-color="#F6CBD6" stop-opacity="0"/>
<stop offset="0.153846" stop-color="#F6CBD6"/>
<stop offset="0.96" stop-color="#F6CBD6" stop-opacity="0"/>
</linearGradient>
<linearGradient id="paint3_linear_350_2082" x1="512.355" y1="-154.677" x2="512.355" y2="1099.57" gradientUnits="userSpaceOnUse">
<stop stop-color="#CDE7D2" stop-opacity="0"/>
<stop offset="0.105769" stop-color="#CDE7D2"/>
<stop offset="1" stop-color="#CDE7D2" stop-opacity="0"/>
</linearGradient>
<linearGradient id="paint4_linear_350_2082" x1="622.448" y1="-134.725" x2="622.448" y2="1119.52" gradientUnits="userSpaceOnUse">
<stop stop-color="#E6E6EC" stop-opacity="0"/>
<stop offset="0.5" stop-color="#E6E6EC"/>
<stop offset="1" stop-color="#E6E6EC" stop-opacity="0"/>
</linearGradient>
</defs>
</svg>
