<svg width="285" height="805" viewBox="0 0 285 805" fill="none" xmlns="http://www.w3.org/2000/svg">
<path d="M159.166 199.334H85.8804L56.0034 228.838L121.875 284.348L189.051 229.197L159.166 199.334Z" stroke="#FD9EA3" stroke-width="1.30824"/>
<path d="M243.437 264.592H188.473L166.066 286.72L215.47 328.352L265.851 286.989L243.437 264.592Z" stroke="#DBDBDB" stroke-width="1.30824"/>
<path d="M196.511 578.963H141.547L119.139 601.091L168.543 642.723L218.925 601.36L196.511 578.963Z" stroke="#DBDBDB" stroke-width="1.30824"/>
<path d="M250.138 707.685H167.692L134.08 740.877L208.186 803.325L283.758 741.281L250.138 707.685Z" stroke="#DBDBDB" stroke-width="1.30824"/>
<path d="M142.217 659.865H100.994L84.1877 676.461L121.241 707.685L159.027 676.663L142.217 659.865Z" stroke="#FFDBDD" stroke-width="1.30824"/>
<path d="M225.744 129.376H170.78L148.372 151.504L197.776 193.136L248.157 151.773L225.744 129.376Z" stroke="#FFDBDD" stroke-width="1.30824"/>
<path d="M186.506 0.654114H131.542L109.134 22.7821L158.538 64.414L208.919 23.0511L186.506 0.654114Z" stroke="#FD9EA3" stroke-width="1.30824"/>
<path d="M177.852 358.764H52.18L0.946289 409.358L113.905 504.547L229.099 409.973L177.852 358.764Z" stroke="#FD9EA3" stroke-width="1.27691"/>
</svg>
