<svg width="1440" height="849" viewBox="0 0 1440 849" fill="none" xmlns="http://www.w3.org/2000/svg">
<g opacity="0.6">
<rect x="-111.815" y="-476" width="377.801" height="1350" rx="40" transform="rotate(11 -111.815 -476)" fill="url(#paint0_linear_316_4297)"/>
<rect x="259.045" y="-403.912" width="402.325" height="1350" rx="40" transform="rotate(11 259.045 -403.912)" fill="url(#paint1_linear_316_4297)"/>
<rect x="644.712" y="-328.946" width="551.617" height="1350" rx="40" transform="rotate(11 644.712 -328.946)" fill="url(#paint2_linear_316_4297)"/>
<rect x="1186.19" y="-223.692" width="264.461" height="1350" rx="40" transform="rotate(11 1186.19 -223.692)" fill="url(#paint3_linear_316_4297)"/>
<rect x="1445.8" y="-173.231" width="327.45" height="1350" rx="40" transform="rotate(11 1445.8 -173.231)" fill="url(#paint4_linear_316_4297)"/>
</g>
<defs>
<linearGradient id="paint0_linear_316_4297" x1="77.0859" y1="-476" x2="77.0859" y2="874.005" gradientUnits="userSpaceOnUse">
<stop stop-color="#E0D9F1" stop-opacity="0"/>
<stop offset="0.3" stop-color="#E0D9F1"/>
<stop offset="1" stop-color="#E0D9F1" stop-opacity="0"/>
</linearGradient>
<linearGradient id="paint1_linear_316_4297" x1="460.207" y1="-403.912" x2="460.207" y2="946.093" gradientUnits="userSpaceOnUse">
<stop offset="0.06" stop-color="#F6EDCB" stop-opacity="0"/>
<stop offset="0.38" stop-color="#F6EDCB"/>
<stop offset="0.96" stop-color="#F6EDCB" stop-opacity="0"/>
</linearGradient>
<linearGradient id="paint2_linear_316_4297" x1="920.521" y1="-328.946" x2="920.521" y2="1021.06" gradientUnits="userSpaceOnUse">
<stop offset="0.06" stop-color="#F6CBD6" stop-opacity="0"/>
<stop offset="0.38" stop-color="#F6CBD6"/>
<stop offset="0.96" stop-color="#F6CBD6" stop-opacity="0"/>
</linearGradient>
<linearGradient id="paint3_linear_316_4297" x1="1318.43" y1="-223.692" x2="1318.43" y2="1126.31" gradientUnits="userSpaceOnUse">
<stop stop-color="#CDE7D2" stop-opacity="0"/>
<stop offset="0.42" stop-color="#CDE7D2"/>
<stop offset="1" stop-color="#CDE7D2" stop-opacity="0"/>
</linearGradient>
<linearGradient id="paint4_linear_316_4297" x1="1609.52" y1="-173.231" x2="1609.52" y2="1176.77" gradientUnits="userSpaceOnUse">
<stop stop-color="#E6E6EC" stop-opacity="0"/>
<stop offset="0.5" stop-color="#E6E6EC"/>
<stop offset="1" stop-color="#E6E6EC" stop-opacity="0"/>
</linearGradient>
</defs>
</svg>
