<svg width="303" height="608" viewBox="0 0 303 608" fill="none" xmlns="http://www.w3.org/2000/svg">
<g clip-path="url(#clip0_350_2097)">
<path d="M156.481 52.5219C169.592 44.1905 174.694 28.0333 169.574 14.028C171.203 15.6558 172.679 17.4857 173.965 19.5101C183.576 34.6345 179.113 54.7004 163.978 64.3183C148.843 73.9362 128.787 69.4661 119.17 54.3311C117.883 52.3067 116.853 50.1939 116.071 48.0273C126.587 58.6044 143.381 60.8466 156.481 52.5219Z" fill="#F1D28B"/>
</g>
<rect x="128.918" y="98.7663" width="13.8493" height="189.115" transform="rotate(-15.0996 128.918 98.7663)" fill="#E0E3E1" stroke="#F8FAFC" stroke-width="0.523036"/>
<rect x="148.652" y="93.2707" width="49.2296" height="189.446" transform="rotate(-15.0996 148.652 93.2707)" stroke="#F8FAFC" stroke-width="0.192265"/>
<rect x="148.534" y="93.2029" width="7.89732" height="189.638" transform="rotate(-15.0996 148.534 93.2029)" fill="#F1E6E6"/>
<rect x="160.298" y="90.029" width="6.17637" height="189.638" transform="rotate(-15.0996 160.298 90.029)" fill="#E4E4E4"/>
<rect x="170.715" y="87.218" width="1.54606" height="189.638" transform="rotate(-15.0996 170.715 87.218)" fill="#EADCDD"/>
<rect x="176.664" y="85.6133" width="6.03025" height="189.638" transform="rotate(-15.0996 176.664 85.6133)" fill="#EFE7E7"/>
<path d="M186.942 82.8404L196.25 80.3287L248.623 261.353L236.342 265.931L186.942 82.8404Z" fill="#EAEAEA"/>
<path d="M182.936 58.9073L129.322 73.3731L113.288 100.855L172.436 128.462L210.694 74.8554L182.936 58.9073Z" fill="#DC8488" stroke="#F8FAFC" stroke-width="4.61436"/>
<g clip-path="url(#clip1_350_2097)">
<path d="M104.26 159.307C129.683 144.809 140.739 114.862 132.364 88.0445C135.284 91.2545 137.895 94.831 140.134 98.7565C156.859 128.084 146.653 165.445 117.305 182.182C87.9563 198.919 50.6166 188.701 33.8794 159.352C31.6408 155.427 29.8923 151.358 28.6164 147.211C47.4532 168.062 78.8572 173.794 104.26 159.307Z" fill="#FFC847"/>
</g>
<path d="M47.6375 243.477L74.088 237.681L150.569 586.687L107.718 597.406L47.6375 243.477Z" fill="#E6EEE7"/>
<rect x="85.6384" y="235.149" width="14.8789" height="357.288" transform="rotate(-12.3604 85.6384 235.149)" fill="#FFDEDE"/>
<rect x="108.062" y="230.235" width="11.6366" height="357.288" transform="rotate(-12.3604 108.062 230.235)" fill="#EEEEEE"/>
<rect x="127.921" y="225.884" width="2.91285" height="357.288" transform="rotate(-12.3604 127.921 225.884)" fill="#FDE7E9"/>
<rect x="139.259" y="223.399" width="11.3613" height="357.288" transform="rotate(-12.3604 139.259 223.399)" fill="#FFDEDE"/>
<rect x="158.849" y="219.106" width="18.1656" height="357.288" transform="rotate(-12.3604 158.849 219.106)" fill="#E6EEE7"/>
<path d="M153.473 173.706L51.274 196.102L18.626 246.377L127.45 303.656L204.274 206.218L153.473 173.706Z" fill="#CA353C" stroke="#F8FAFC" stroke-width="8.69368"/>
<defs>
<clipPath id="clip0_350_2097">
<rect width="39.4438" height="64.9108" fill="white" transform="translate(170.219 13.6172) rotate(57.5652)"/>
</clipPath>
<clipPath id="clip1_350_2097">
<rect width="74.314" height="122.295" fill="white" transform="translate(133.616 87.3295) rotate(60.3043)"/>
</clipPath>
</defs>
</svg>
