<svg width="515" height="793" viewBox="0 0 515 793" fill="none" xmlns="http://www.w3.org/2000/svg">
<g clip-path="url(#clip0_316_4306)">
<path d="M273.03 77.44C294.414 62.6666 301.906 35.3239 292.443 12.2369C295.273 14.8537 297.857 17.8183 300.138 21.1203C317.181 45.7896 311.009 79.6265 286.322 96.681C261.636 113.736 227.816 107.552 210.762 82.8652C208.48 79.5633 206.622 76.097 205.176 72.5249C223.438 89.5329 251.662 92.2015 273.03 77.44Z" fill="#F1D28B"/>
</g>
<rect x="293.455" y="11.7323" width="65.6761" height="108.288" transform="rotate(55.3617 293.455 11.7323)" stroke="#F8FAFC" stroke-width="0.3217"/>
<rect x="229.92" y="156.533" width="23.1728" height="316.43" transform="rotate(-17.303 229.92 156.533)" fill="#E0E3E1" stroke="#F8FAFC" stroke-width="0.87515"/>
<rect x="262.561" y="146.075" width="82.3715" height="316.983" transform="rotate(-17.303 262.561 146.075)" stroke="#F8FAFC" stroke-width="0.3217"/>
<rect x="262.359" y="145.969" width="13.2139" height="317.305" transform="rotate(-17.303 262.359 145.969)" fill="#F1E6E6"/>
<rect x="281.824" y="139.905" width="10.3344" height="317.305" transform="rotate(-17.303 281.824 139.905)" fill="#E4E4E4"/>
<rect x="299.06" y="134.535" width="2.58688" height="317.305" transform="rotate(-17.303 299.06 134.535)" fill="#EADCDD"/>
<rect x="308.904" y="131.47" width="10.0899" height="317.305" transform="rotate(-17.303 308.904 131.47)" fill="#EFE7E7"/>
<path d="M325.91 126.172L341.312 121.374L440.525 420.673L420.284 429.117L325.91 126.172Z" fill="#EAEAEA"/>
<path d="M317.672 86.4143L228.962 114.05L203.922 161.031L304.591 203.384L365.109 111.293L317.672 86.4143Z" fill="#DC8488" stroke="#F8FAFC" stroke-width="7.7208"/>
<g clip-path="url(#clip1_316_4306)">
<path d="M192.586 259.342C234.16 233.465 250.72 182.684 234.991 138.384C240.079 143.564 244.676 149.375 248.672 155.795C278.523 203.754 263.862 266.876 215.869 296.748C167.875 326.621 104.787 311.938 74.9149 263.945C70.9194 257.526 67.7343 250.836 65.3341 243.983C98.1703 277.635 151.046 285.198 192.586 259.342Z" fill="#FFC847"/>
</g>
<path d="M103.331 403.714L147.182 392.321L297.51 970.93L226.553 991.609L103.331 403.714Z" fill="#E6EEE7"/>
<rect x="166.331" y="387.346" width="24.8956" height="597.818" transform="rotate(-14.5639 166.331 387.346)" fill="#FFDEDE"/>
<rect x="203.507" y="377.687" width="19.4705" height="597.818" transform="rotate(-14.5639 203.507 377.687)" fill="#EEEEEE"/>
<rect x="236.431" y="369.134" width="4.87382" height="597.818" transform="rotate(-14.5639 236.431 369.134)" fill="#FDE7E9"/>
<rect x="255.227" y="364.25" width="19.0098" height="597.818" transform="rotate(-14.5639 255.227 364.25)" fill="#FFDEDE"/>
<rect x="287.705" y="355.812" width="30.3949" height="597.818" transform="rotate(-14.5639 287.705 355.812)" fill="#E6EEE7"/>
<path d="M275.796 280.251L106.363 324.271L55.0106 410.429L240.647 499.197L362.826 331.341L275.796 280.251Z" fill="#CA353C" stroke="#F8FAFC" stroke-width="14.5464"/>
<defs>
<clipPath id="clip0_316_4306">
<rect x="293.496" y="11.5085" width="65.9978" height="108.61" transform="rotate(55.3617 293.496 11.5085)" fill="white"/>
</clipPath>
<clipPath id="clip1_316_4306">
<rect width="124.343" height="204.626" fill="white" transform="translate(237.04 137.108) rotate(58.1008)"/>
</clipPath>
</defs>
</svg>
